Coordinates
version=1
nRows=9
nColumns=32
inDegrees=yes

Units are S.I. units (second, meters, Newtons, ...)
If the header above contains a line with 'inDegrees', this indicates whether rotational values are in degrees (yes) or radians (no).

endheader
time	pelvis_tilt	pelvis_list	pelvis_rotation	pelvis_tx	pelvis_ty	pelvis_tz	hip_flexion_r	hip_adduction_r	hip_rotation_r	knee_angle_r	knee_adduction_r	med_cond_adduction_r	lat_cond_adduction_r	patella_r_constrained_knee_angle	hip_flexion_l	hip_adduction_l	hip_rotation_l	knee_angle_l	knee_adduction_l	med_cond_adduction_l	lat_cond_adduction_l	patella_l_constrained_knee_angle	lumbar_extension	lumbar_bending	lumbar_rotation	ankle_angle_r	subtalar_angle_r	mtp_angle_r	ankle_angle_l	subtalar_angle_l	mtp_angle_l
      0.26500000	     -6.51172228	      3.28263509	     -1.27886021	     -0.44318164	      0.87344810	      0.16681134	     31.20147563	     -6.11610864	      5.93375113	    -59.63033024	      7.64403905	     -0.00000000	     -0.00000000	     -1.04074560	     13.58225310	      5.58704250	     -1.86750962	    -12.75641513	      1.51037718	     -0.00000000	     -0.00000000	     -0.22264144	    -10.45387406	     -5.39778445	     -0.35051475	     -8.96403754	     -2.70295277	      0.00000000	      7.06943279	     16.06923085	     -0.00000000
      0.27000000	     -6.55191860	      3.08572618	     -1.03356759	     -0.43706192	      0.87378622	      0.16660133	     31.79461771	     -6.03050838	      5.82424835	    -58.90547130	      7.89251530	      0.00000000	      0.00000000	     -1.02809442	     13.00559091	      5.44625019	     -1.68520584	    -12.50200294	      1.47553593	      0.00000000	      0.00000000	     -0.21820111	    -10.46977050	     -5.16815278	     -0.49353075	     -8.33693606	     -3.60532634	      0.00000000	      7.27267766	     16.18123948	     -0.00000000
      0.27500000	     -6.54030043	      2.87187729	     -0.78247624	     -0.43092624	      0.87413013	      0.16635266	     32.28560179	     -5.94096198	      5.66339092	    -58.08180144	      8.11524025	     -0.00000000	     -0.00000000	     -1.01371867	     12.35017455	      5.28703166	     -1.46238433	    -12.20563766	      1.47561802	     -0.00000000	     -0.00000000	     -0.21302856	    -10.56753539	     -4.89225893	     -0.59797352	     -7.83436585	     -4.53268881	      0.00000000	      7.61027887	     16.28093710	     -0.00000000
      0.28000000	     -6.56362707	      2.73531536	     -0.54742616	     -0.42483578	      0.87435720	      0.16616912	     32.81141253	     -5.92145852	      5.60591611	    -57.21667032	      8.37318986	     -0.00000000	     -0.00000000	     -0.99861928	     11.72285045	      5.21620889	     -1.22951540	    -11.86823358	      1.45771897	      0.00000000	      0.00000000	     -0.20713975	    -10.62920952	     -4.73921042	     -0.88842535	     -7.23022029	     -5.27110098	     -0.00000000	      7.55623558	     16.11331340	     -0.00000000
      0.28500000	     -6.57283521	      2.51526623	     -0.27638847	     -0.41872449	      0.87452233	      0.16601235	     33.26593869	     -5.80630323	      5.37566688	    -56.26469639	      8.49274439	      0.00000000	      0.00000000	     -0.98200420	     11.15315805	      5.04021081	     -1.07248714	    -11.69693205	      1.40757027	     -0.00000000	     -0.00000000	     -0.20414998	    -10.69759234	     -4.51097504	     -0.84922768	     -6.87331355	     -6.17060328	     -0.00000000	      8.23268507	     16.49074307	      0.00000000
      0.29000000	     -6.60896599	      2.37772905	     -0.03058001	     -0.41264520	      0.87459883	      0.16589044	     33.74243071	     -5.77063633	      5.27352008	    -55.26686761	      8.67454832	     -0.00000000	     -0.00000000	     -0.96458881	     10.55954632	      4.94963384	     -0.80072446	    -11.40577107	      1.40600167	      0.00000000	      0.00000000	     -0.19906826	    -10.73123049	     -4.32256907	     -1.07987611	     -6.38678240	     -6.92176620	      0.00000000	      8.23148377	     16.42617552	      0.00000000
      0.29500000	     -6.62166683	      2.29565488	      0.23683999	     -0.40655731	      0.87464829	      0.16576082	     34.16202406	     -5.81077409	      5.13598632	    -54.20080788	      8.79977652	     -0.00000000	     -0.00000000	     -0.94598255	      9.93534561	      4.95170853	     -0.52104764	    -11.08719047	      1.35304865	     -0.00000000	     -0.00000000	     -0.19350798	    -10.79383005	     -4.29762465	     -1.34917178	     -5.94441250	     -7.53103368	      0.00000000	      8.16488468	     16.15253877	     -0.00000000
      0.30000000	     -6.66922896	      2.15742309	      0.52665581	     -0.40049023	      0.87455690	      0.16564124	     34.58828112	     -5.79422312	      4.90681616	    -53.07241930	      8.86968344	     -0.00000000	     -0.00000000	     -0.92628846	      9.43636209	      4.85760901	     -0.33097317	    -10.95477102	      1.32301182	      0.00000000	      0.00000000	     -0.19119682	    -10.81572211	     -4.14291992	     -1.36429694	     -5.63567101	     -8.30291156	      0.00000000	      8.75676653	     16.38844513	      0.00000000
      0.30500000	     -6.69598737	      2.06971547	      0.78926766	     -0.39439932	      0.87450372	      0.16555841	     34.92670739	     -5.80828283	      4.78850106	    -51.80245621	      8.96288961	      0.00000000	      0.00000000	     -0.90412342	      8.83779738	      4.84246883	     -0.01683316	    -10.65661821	      1.26719206	     -0.00000000	     -0.00000000	     -0.18599307	    -10.86812281	     -4.14345614	     -1.71580578	     -5.27408106	     -8.78524855	      0.00000000	      8.55456712	     16.18417633	     -0.00000000
